<?xml version="1.0" encoding="UTF-8" standalone="no"?>
<svg
   xmlns:dc="http://purl.org/dc/elements/1.1/"
   xmlns:cc="http://creativecommons.org/ns#"
   xmlns:rdf="http://www.w3.org/1999/02/22-rdf-syntax-ns#"
   xmlns:svg="http://www.w3.org/2000/svg"
   xmlns="http://www.w3.org/2000/svg"
   xmlns:sodipodi="http://sodipodi.sourceforge.net/DTD/sodipodi-0.dtd"
   xmlns:inkscape="http://www.inkscape.org/namespaces/inkscape"
   width="16"
   height="16"
   viewBox="0 0 4.2333332 4.2333335"
   version="1.1"
   id="svg8"
   sodipodi:docname="twitch-mining.svg"
   inkscape:export-filename="/home/vipra/Downloads/twitch-mining16.png"
   inkscape:export-xdpi="7.2929711"
   inkscape:export-ydpi="7.2929711"
   inkscape:version="1.0.2 (e86c870, 2021-01-15)">
  <defs
     id="defs2">
    <clipPath
       clipPathUnits="userSpaceOnUse"
       id="clipPath156">
      <rect
         style="fill:#000000;fill-opacity:1;stroke-width:0.377558"
         id="rect158"
         width="2.3022509"
         height="0.78041643"
         x="-1.1366882"
         y="3.2924056"
         transform="matrix(0.66985472,-0.74249219,0.74680667,0.6650412,0,0)" />
    </clipPath>
    <clipPath
       clipPathUnits="userSpaceOnUse"
       id="clipPath156-2">
      <rect
         style="fill:#000000;fill-opacity:1;stroke-width:0.377558"
         id="rect158-4"
         width="2.3022509"
         height="0.78041643"
         x="-1.1366882"
         y="3.2924056"
         transform="matrix(0.66985472,-0.74249219,0.74680667,0.6650412,0,0)" />
    </clipPath>
    <clipPath
       clipPathUnits="userSpaceOnUse"
       id="clipPath436">
      <rect
         style="fill:#000000;fill-opacity:1;stroke-width:0.264583"
         id="rect438"
         width="2.393476"
         height="1.0123023"
         x="0.0066409684"
         y="3.0814552" />
    </clipPath>
    <clipPath
       clipPathUnits="userSpaceOnUse"
       id="clipPath440">
      <rect
         style="fill:#000000;fill-opacity:1;stroke-width:0.264583"
         id="rect442"
         width="2.393476"
         height="1.0123023"
         x="2.4001169"
         y="2.0691528" />
    </clipPath>
  </defs>
  <sodipodi:namedview
     id="base"
     pagecolor="#ffffff"
     bordercolor="#666666"
     borderopacity="1.0"
     inkscape:pageopacity="0.0"
     inkscape:pageshadow="2"
     inkscape:zoom="19.21875"
     inkscape:cx="-3.3664575"
     inkscape:cy="14.593954"
     inkscape:document-units="mm"
     inkscape:current-layer="layer1"
     inkscape:document-rotation="0"
     showgrid="false"
     units="px"
     inkscape:window-width="1920"
     inkscape:window-height="1015"
     inkscape:window-x="0"
     inkscape:window-y="0"
     inkscape:window-maximized="1" />
  <metadata
     id="metadata5">
    <rdf:RDF>
      <cc:Work
         rdf:about="">
        <dc:format>image/svg+xml</dc:format>
        <dc:type
           rdf:resource="http://purl.org/dc/dcmitype/StillImage" />
        <dc:title></dc:title>
      </cc:Work>
    </rdf:RDF>
  </metadata>
  <g
     inkscape:label="Layer 1"
     inkscape:groupmode="layer"
     id="layer1">
    <g
       id="g446"
       transform="translate(0.47172202,-0.34773923)"
       inkscape:export-xdpi="7"
       inkscape:export-ydpi="7">
      <path
         d="M 2.5582151,2.2480513 2.44522,2.5493813 V 3.7545567 H 2.8593429 V 3.9806626 H 3.0854373 L 3.3113062,3.7545567 H 3.6502051 L 4.1021626,3.302761 V 2.2480513 Z M 2.7087559,2.398621 H 3.951558 V 3.2272769 L 3.6878775,3.4909746 H 3.2736913 L 3.0478857,3.7167687 V 3.4909746 H 2.7087559 Z M 3.1230454,3.1520453 H 3.2736898 V 2.700111 H 3.1230454 Z m 0.4142152,0 h 0.150616 V 2.700111 h -0.150616 z"
         fill="#5a3e85"
         id="path212"
         style="stroke-width:0.0064724"
         clip-path="url(#clipPath440)"
         transform="rotate(-60.556237,1.470476,4.8995217)" />
      <path
         d="m 0.44154836,2.2480513 -0.1129951,0.30133 v 1.2051754 h 0.41412287 v 0.2261059 h 0.2260944 L 1.1946394,3.7545567 H 1.5335383 L 1.9854958,3.302761 V 2.2480513 Z M 0.59208913,2.398621 H 1.8348912 V 3.2272769 L 1.5712107,3.4909746 H 1.1570245 L 0.93121893,3.7167687 V 3.4909746 H 0.59208913 Z M 1.0063786,3.1520453 H 1.157023 V 2.700111 H 1.0063786 Z m 0.4142152,0 h 0.150616 V 2.700111 h -0.150616 z"
         fill="#5a3e85"
         id="path212-6"
         style="stroke-width:0.0064724"
         clip-path="url(#clipPath436)" />
    </g>
    <g
       id="g451"
       transform="rotate(18.720377,3.8368548,-1.3252484)"
       inkscape:export-xdpi="7"
       inkscape:export-ydpi="7">
      <g
         id="g146"
         transform="matrix(-0.68989165,0,0,0.68989165,4.5143728,0.41482178)"
         style="fill:#5a3e85;fill-opacity:1">
        <path
           style="fill:#5a3e85;fill-opacity:1;stroke-width:0.00666254"
           d="m -1.2994215,3.5973227 v -0.253177 h 0.1299194 0.1299195 V 3.2142263 3.0843069 h 0.1265888 0.12658817 V 2.9577187 2.8311299 h 0.12658816 0.12658884 v 0.1265888 0.1265882 h 0.12658816 0.12658817 V 2.9578656 2.8314244 l -0.12492253,-0.00181 -0.12492254,-0.00181 V 2.7012138 2.574625 h 0.12658817 0.12658816 l 0.001811,0.1249232 0.001811,0.1249225 h 0.12644125 0.12644126 V 2.6978825 2.5712937 H -0.14680429 -0.27339245 V 2.4447055 2.3181174 h 0.12658816 0.12658817 V 2.1916727 2.0652281 l 0.1282538,-0.00181 0.12825447,-0.00181 0.001811,-0.1282538 0.001811,-0.1282538 H 0.36635849 0.4928031 V 1.6785093 1.5519211 H 0.61939194 0.7459801 V 1.6785093 1.8050981 H 0.87256827 0.99915643 V 1.6786569 1.5522156 L 0.8742339,1.5504044 0.74931137,1.5485932 V 1.4220044 1.2954162 l 0.12492253,-0.00181 0.12492253,-0.00181 v 0.130067 0.1300664 H 1.1290765 1.258996 V 1.6785153 1.8051042 H 1.3855841 1.512173 V 2.3147888 2.8244734 H 1.3855841 1.258996 V 2.3147888 1.8051042 H 1.1290765 0.99915643 V 1.9316923 2.0582805 H 0.87256827 0.7459801 V 2.1881999 2.31812 H 0.61939194 0.4928031 V 2.4447082 2.5712964 H 0.36288367 0.23296423 V 2.6978845 2.8244734 H 0.1063754 -0.02021277 V 2.9543928 3.0843122 H -0.1501322 -0.28005163 V 3.2109011 3.3374892 H -0.40664047 -0.53322863 V 3.4674087 3.5973281 H -0.6598168 -0.78640496 V 3.7239169 3.8505051 H -1.0429132 -1.2994208 Z M -0.78640563,3.4674033 V 3.3374839 h 0.12658816 0.12658884 V 3.210895 3.0843069 h -0.12644461 -0.12644461 l -0.001811,0.1282538 -0.001811,0.1282544 -0.12492253,0.00181 -0.12492252,0.00181 v 0.126442 0.1264412 h 0.12658816 0.12658816 z M 0.23296356,2.4447028 V 2.318114 H 0.36288367 0.4928031 V 2.1881946 2.0582751 H 0.61939126 0.74597943 V 1.9316863 1.8050981 H 0.61953482 0.49309088 l -0.001811,0.1282545 -0.001811,0.1282538 -0.1247763,0.00181 -0.12477629,0.00181 -0.001811,0.1247763 -0.001811,0.1247756 -0.1282538,0.00181 -0.1282538,0.00181 V 2.4448477 2.5712923 H 0.10637406 0.23296222 Z M 1.5188348,2.9577187 V 2.8311299 H 1.6420917 1.7653486 V 2.9577187 3.0843069 H 1.6420917 1.5188348 Z M 1.7720118,2.1881946 V 1.5519218 H 1.8986 2.0251882 V 2.1881946 2.8244673 H 1.8986 1.7720118 Z M 1.5165762,1.3542923 C 1.5141613,1.2492608 1.5121488,1.1353316 1.5121488,1.101116 V 1.038905 h 0.1299195 0.1299201 v 0.1265882 0.1265881 l -0.01832,9.392e-4 c -0.01571,8.049e-4 -0.016187,0.00134 -0.00335,0.00382 0.014899,0.00288 0.014993,0.00362 0.014993,0.1256812 V 1.5453183 H 1.6431228 1.5209378 Z m 0.1571626,-0.060481 c -0.022902,-0.00127 -0.06038,-0.00127 -0.083282,0 -0.022902,0.00127 -0.00416,0.00235 0.041644,0.00235 0.045803,0 0.064546,-0.00107 0.041644,-0.00235 z M -0.27338977,1.1654941 V 1.0389059 h 0.5096846 0.5096846 v 0.1265882 0.1265882 h -0.5096846 -0.5096846 z M 1.1340728,1.0339862 1.005819,1.0319737 V 0.90886039 0.78574705 h 0.2566551 0.2566545 l -0.00181,0.12492253 -0.00181,0.12492322 -0.1265881,2.227e-4 c -0.069623,1.248e-4 -0.1843024,-6.708e-4 -0.254842,-0.00181 z M -0.5265661,0.90898583 V 0.78572894 h 0.1232569 0.1232569 V 0.90898583 1.0322434 H -0.4033092 -0.5265661 Z M 1.0047834,0.5831679 c -0.6698556,-0.3887786 -0.3349278,-0.1943893 0,0 z"
           id="path138"
           sodipodi:nodetypes="ccccccccccccccccccccccccccccccccccccccccccccccccccccccccccccccccccccccccccccccccccccccccccccccccccccccccccccccccccccccccccccccccccccccccccccccccccccccccccccccccccccccccccscccccccsccccsssssccccccccccccccccccccccccccccccc" />
        <rect
           style="fill:#5a3e85;fill-opacity:1;fill-rule:evenodd;stroke-width:0.296609"
           id="rect140"
           width="1.2852695"
           height="0.25651029"
           x="-0.2800523"
           y="0.52921861" />
      </g>
    </g>
  </g>
</svg>
